<?xml version="1.0" encoding="UTF-8"?>
<svg id="Calque_1" data-name="Calque 1" xmlns="http://www.w3.org/2000/svg" viewBox="0 0 26 24">
  <defs>
    <style>
      .cls-1 {
        fill: #f9322c;
        stroke-width: 0px;
      }
    </style>
  </defs>
  <path class="cls-1" d="M18.2,3.9h4.9c.4,0,.9-.2,1.1-.6l1.8-3.3H2.9c-.5,0-.9.2-1.1.7L0,3.9h11.13L0,24h3.9c.4,0,.9-.2,1.1-.6L15.75,3.9h2.45Z"/>
  <path class="cls-1" d="M24.6,20.1h-9.6l5.5-10.1h-.04l1.64-2.9v-.1h-3.9c-.5,0-.9.2-1.1.7l-1.8,3.3h.05l-7.15,13h16.4c.3,0,.6-.3.6-.6v-2.7c0-.3-.3-.6-.6-.6Z"/>
</svg>